<?xml version="1.0" encoding="UTF-8"?>
<svg id="Layer_1" data-name="Layer 1" xmlns="http://www.w3.org/2000/svg" version="1.1" viewBox="0 0 256.4 42.9">
  <defs>
    <style>
      .cls-1 {
        fill: #000;
      }

      .cls-1, .cls-2 {
        stroke-width: 0px;
      }

      .cls-2 {
        fill: #fff;
      }
    </style>
  </defs>
  <g id="Layer_1-2" data-name="Layer 1">
    <polygon class="cls-1" points="21.8 27.3 21.8 27.3 21.8 27.3 17.9 26.8 21.8 27.3"/>
    <polygon class="cls-1" points="39 35.7 39 35.8 39 35.8 42.7 34.3 39 35.7"/>
    <polygon class="cls-1" points="98.3 37.2 98.5 37.4 98.7 37.6 101.3 34.5 98.3 37.2"/>
    <polygon class="cls-1" points="215.9 30.3 215.9 30.4 216 30.5 219.9 29.7 215.9 30.3"/>
    <polygon class="cls-1" points="254.8 8.5 254.8 8.5 254.8 8.5 250.9 8.1 254.8 8.5"/>
    <polygon class="cls-1" points="232.1 29.3 232.1 29.3 232.1 29.4 236.1 28.7 232.1 29.3"/>
    <polygon class="cls-1" points="232 28.4 232 28.5 232 28.5 235.9 27.9 232 28.4"/>
    <path class="cls-1" d="M255.1,14.8h0v-.2h0c0-.8-.1-1.6-.3-2.4v-1.6l-4-.4h0l4,.4h0c.1-1.1.2-2.2,0-3.2-.1-.9-.4-2.4-1.5-3.5h0v-.2c-.5-.5-1-.8-1.6-1.1-2.2-1.5-4.6-1.3-6.4-.6h0c-.4,0-.6.2-.8.2h-.1c-.2,0-.4,0-.8-.2-1.2-.3-2.5-.4-3.9-.5h0c-1.5,0-3,.2-4.5,1,0,0-.1,0-.2,0-.3-.2-.6-.4-1-.5-1-.4-2-.3-2.3-.3h0c-.4,0-.8-.2-1.1-.2-.6,0-1.3,0-1.9-.2-1.4,0-3.3.3-4.7,1.8-.6-.6-1.3-1.1-2.2-1.5-.4,0-.9-.2-1.3-.2-1.2-.4-2.9-.7-4.5.3h-.1c-1.5,0-3.2.5-4.6,1.7-1.4-.9-3.1-1-4.1-1h-.8c-.2,0-.3,0-.5,0-.4,0-.9-.2-1.3-.2h0c-.8-.7-1.7-1-2.3-1.1h0c-1.4-.4-2.9-.2-3.8,0h-.4c-.8.2-1.5.7-2.2,1.2h0c-.2.2-.4.3-.6.5-.2.2-.4.3-.7.5-.1,0-.2,0-.4,0-.5-.5-1-.8-1.6-1.1-2.2-1.5-4.6-1.3-6.4-.6h0c-.4,0-.6.2-.8.2h-.1c-.2,0-.4,0-.8-.2-1.2-.3-2.5-.4-3.9-.5h0c-1.5,0-3,.2-4.5,1-.7.4-1.3.9-1.9,1.5-.7-.9-1.6-1.7-3-2.1h0c-1.1-.3-2.3-.4-3.4,0h0l-.8.2h0c-.9-.5-1.9-.7-2.9-.6-1.2,0-2.3.6-3,1.1-.8.5-1.5,1.1-2.2,1.8-.1-.2-.2-.3-.4-.5h0v-.2l-2.8,2.8h0l2.8-2.8c-.5-.5-1-.9-1.6-1.1-2.2-1.5-4.6-1.3-6.4-.6h0c-.4,0-.6.2-.8.2h-.1c-.2,0-.4,0-.8-.2-1.2-.3-2.5-.4-3.9-.5h0c-1.5,0-3,.2-4.5,1-1,.6-1.8,1.4-2.4,2.3-1.4-1.3-3.1-2.2-5.1-2.6h0c-.8-.2-1.7-.3-2.6-.3h-3.4c-.2,0-.6-.2-1-.4h0c-1.1-.5-2.7-.7-4.3,0h0c-.5.2-.9.5-1.3.7h0v.2q0,0-.3,0c-.2,0-.2,0-.3.2,0,0-.3,0-.4.2-1.1.6-1.8,1.5-2.1,2.1h0c-.4-.4-.8-.7-1.2-1-.2,0-.5-.3-.8-.4-.7-.8-1.6-1.5-2.7-1.9-1.3-.5-2.6-.7-3.9-.7-1.9,0-3.7.7-5.2,1.6h0c-.7.5-1.4,1-2.1,1.5,0-.2-.2-.3-.4-.5h0v-.2l-2.8,2.8h0l2.8-2.8c-.5-.5-1-.8-1.6-1.1-2.2-1.5-4.6-1.3-6.4-.6h0c-.4,0-.6.2-.8.2h0c-.2,0-.4,0-.8-.2-1.2-.3-2.5-.4-3.9-.5h0c-1,0-2,0-3,.4-1.1-.6-2.3-.7-3.3-.6h-.2c-.6,0-1.2.3-1.8.5h0c-.3,0-.6.2-.9.3-1.4-.3-3.5-.4-5.1,1.3s0,0-.2.2c-.7-.9-1.7-1.6-2.9-2-1-.3-2-.3-2.8,0h-.2c0,0-.3,0-.5,0-.5,0-1-.2-1.6-.3h0c-1.5-.2-2.7.4-3.4.8l2,3.5h0l-2-3.5h0c-.7.5-1.3,1-1.7,1.7-.4-.3-.8-.6-1.2-.9h0c-.8-.5-1.9-.9-3.1-1h-.2c-.8,0-1.6,0-2.4.2h0s-.2,0-.7,0l-1.3,3.8h0l1.3-3.8h0c-1.8-.6-4.3-.9-6.5.7l2.4,3.2h0l-2.4-3.2h-.2c0,0,0,.2,0,.2,0,0-.2.2-.4.4-.8-.9-1.8-1.4-2.6-1.6-1.8-.6-3.5-.2-4.7.3-2.3-1-4.6-.5-6.4.4h-5.7c-1.3,0-2.9.2-4.1,1.2-1.2-.9-2.5-1.6-4-1.8h0c-.5,0-1,0-1.5,0s-.2,0-.3,0h0c-.7-.2-1.5-.2-1.9-.2-1,0-1.8.3-2.2.5-.5.2-1,.5-1.5.8h0c-.2,0-.2,0-.2,0-.4,0-.9.2-1.3.3h-.2c-1.9.4-3.4,1.5-4.6,2.9h0c-1.2,1.5-2,3.2-2.1,5.2h0v1.9h0v1.1c0,.3,0,.2,0,.2,0,.4-.3.8-.4,1.4-.5,1.6-.3,3.4.8,5h0c.2.2.3.5.6.7,0,0,0,.1.2.2h0c0,.3.2.7.3,1.3.4,1.7,1.3,3.2,2.4,4.4-.6.3-1.2.7-1.6,1h0v.2c-1.1.9-1.8,2.2-1.9,3.7h0v.3h0v.2h0v.2h0v.2h0v.2h0v.2h0v.2h0v.2h0v.2h0v.2h0v.3h0v.2c-.2,1.3.2,2.3.6,3.1l3.6-1.8h0l-3.6,1.8v.2c0,0,.2.2.2.2.9,1.3,2.2,1.9,3.2,2.1.3.3.6.7.9,1h0c.9.7,1.9,1.3,3.2,1.6.8,0,1.7.2,2.6.2h0c1.2,0,2.4,0,3.6-.5h0c1.4-.4,2.7-1.2,3.6-2.6h0c.1,0,.2-.3.3-.5,1.1-.7,1.9-1.7,2.4-2.5h0c.9-1.5,1.2-3.3,1.2-4.8s0,0,0,0h0v-.6l-4-.6h0l4,.5v-.7c0-.4.1-.8.2-1.3h0c.3-1.8.2-3.7-.5-5.4h0v-.2c.3-.2.5-.3.8-.5.4.1.9.2,1.4.2v.4h4c0,.1-4,.1-4,.1h0c0,.9-.2,1.9-.5,3.1h0c-.1.5-.2,1-.3,1.4h0v.3l4,.6h0l-4-.6c-.1.8-.1,1.6,0,2.4l4-.6h0l-4,.6h0c.1.7.5,2.2,1.8,3.2v.7h0v.3l4-.3h0l-4,.3c0,.5,0,1,.1,1.6h0v.2l4-.6h0l-4,.6c.2,1,.7,2.5,2.1,3.5,0,0,.1.2.2.3h0v.2l.3-.2h0l-.3.2c.7,1,1.7,1.7,2.8,1.9h.4c1.2.2,2.5,0,3.7-1,.6-.4,1-1,1.3-1.3,1-.5,1.9-1.2,2.5-2.3.2-.3.3-.6.5-.9,0,.7.3,1.4.5,2.1l3.7-1.4h0l-3.7,1.5c.6,1.3,1.6,2.4,3,2.9h.2c.9.3,2,.5,3.2.2h.2c2.5-.7,3.6-2.8,4.1-4.5,0,0,.2.2.2.3.2.2.4.4.6.5h0,0v.2l.2.2.5-.2h0l-.5.2c.7,1.5,1.8,2.3,2.8,2.7l1.5-3.7h0l-1.5,3.7h0c2.3.9,4.3-.2,5.3-1.2s1-1,1.3-1.7h0c1,1.4,2.7,2.9,5.2,2.9h0c.8,0,1.6-.2,2.5-.8s1.4-1.3,1.8-2.1c.2-.4.3-.7.4-1.1h0l3.4-2-3.4,1.8h0l3.4-1.8h0l-3.4,2.1c.5.9,1.2,1.7,1.9,2.4h0c1.1,1,2.6,1.7,4.4,1.6h0c.5,0,1.1,0,1.8-.3.6-.2,1.7-.7,2.4-1.9.4.4.8.7,1.3.9.9.5,1.9.6,2.8.6.2.2.4.3.6.5,1.2,1,2.5,1.3,3.6,1.3s2.1,0,3.4-.7c.4-.2.8-.5,1.2-.9.6,0,1.3,0,2.1-.3.7-.3,1.3-.7,1.7-1.2h0s.2-.2.3-.4c0,.2.2.3.4.4l3-2.6h0l-2.6,3c.5.4,1,.8,1.6,1h.3c1,.5,2.1.6,2.9.7l.2-4h0l-.2,4h0c1.1,0,2.3,0,3.4-.6h0c.4,0,.8-.3,1.2-.4h1.3l.3-4h0l-.3,4h.6l.7-3.9h0l-.7,3.9c.4,0,.8,0,1.2.2h0c.9,0,1.7,0,2.5-.2.3,0,.7,0,1,.2,1.2,0,2.1-.2,2.7-.5h.2l.2-.2-2.1-3.4h0l2.1,3.4c.4-.3.9-.7,1.3-1.2h0v-.2h0c.6.9,1.4,1.6,2.4,2.1,1.2.5,2.3.5,3.1.4h.2l-.7-3.9h0l.7,3.9c1.6-.3,3.1-1.3,3.9-2.9l-3.6-1.8h0l3.6,1.8.3-.6c.2.4.4.8.7,1.1.4.5,1,1,2,1.4h0c.2,0,.3,0,.5.2.3.2.7.4,1,.6,1.1.5,2.2.5,3.2.2.9-.2,1.6-.7,1.9-.9.4-.3.7-.6,1-1h0c.3.3.7.6,1.2.8.9.5,1.9.6,2.8.6.2.2.4.3.6.5,1.2,1,2.5,1.3,3.6,1.3s2.1,0,3.4-.7c.4-.2.8-.5,1.2-.9.6,0,1.3,0,2.1-.3.7-.3,1.3-.7,1.7-1.2h0c.1-.2.3-.4.6-.7h0s.2-.2.2-.3c.4.4.7.7,1.1,1h0c.6.5,1.3.9,2,1.3.5.3,1.1.5,1.8.7h.2c1.4.4,2.7,0,3.6-.5.5.2,1,.3,1.6.3.9,0,1.8,0,2.7-.5h0c.7-.3,1.9-.9,2.7-2.4h0v-.2h-.2c0,0,.2,0,.2,0h0c.5-.2.9-.5,1.2-.9.2.4.4.8.7,1.2.5.6,1.1,1.3,2,1.7.9.5,1.9.6,2.8.6.2.2.4.3.6.5,1.2,1,2.5,1.3,3.6,1.3s2.1,0,3.4-.7c.4-.2.8-.5,1.2-.9.6,0,1.3,0,2.1-.3.7-.3,1.3-.7,1.7-1.2h0c.1-.2.3-.4.6-.7h0c1,2.1,3.1,2.7,4.1,2.9.7,0,1.4.2,2.1,0h.4c.9-.2,1.7-.5,2.4-1,.9-.7,1.5-1.5,1.7-2.1,0-.2.1-.3.2-.5.3.7.6,1.3,1,1.7.8,1.1,1.9,1.5,2.7,1.6.8.2,1.5,0,2.1,0h0c.5,0,1.1-.2,1.6-.4h0c.8-.3,1.5-.7,2.1-1.3,1-1,1.3-2.1,1.4-2.7.1-.7.2-1.3.2-1.9s-.1-1.6-.4-2.4c-.2-.6-.5-1.5-1.3-2.2,0-1-.4-2-.7-2.9.5-.5,1-1,1.4-1.7.2.2.4.4.6.6h.1c0,.3.2.7.3,1.2h0c0,.4.2,1.3.4,3h0c0,.6.1,1.3.2,1.9l4-.6h0l-3.9.8c.2.8.4,1.7.7,2.6.4,1,.9,1.9,1.6,2.8h0c0,0,.1.3.2.7l3.8-1.2h0l-3.8,1.2h0c.5,1.6,1.8,3,3.7,3.4.9.2,2,0,3-.5.9-.5,1.5-1.2,1.9-1.8h0c.3-.6.6-1.3.9-2v-.2c1.5-1.3,2.2-3.2,2.5-4.9h0s0,0,0,0,0-.3.1-.5c.1-.5.3-1.1.6-1.9l-3.8-1.2h0l3.8,1.2h0c.2-.7.4-1.4.6-2.2v.6h0c-.1.6-.2,1.3,0,2.1l4-.6h0l-3.9.7c0,0,0,.4.1.8l4-.6h0l-4,.6v.8c0,.8.3,1.7.9,2.6h0v1c0,.3.3,1.2,1,2,.5.6,1.1,1.3,2,1.7.9.5,1.9.6,2.8.6.2.2.4.3.6.5,1.2,1,2.5,1.3,3.6,1.3s2.1,0,3.4-.7c.4-.2.8-.5,1.2-.9.6,0,1.3,0,2.1-.3.7-.3,1.3-.7,1.7-1.2h0c.1-.2.3-.4.6-.7h0c.4-.4,1.1-1.2,1.4-2.4.1-.4.2-.8.3-1.3,0,0,0-.3.2-.6.6-1.3.7-2.6.5-3.9h0c-.1-.9-.4-1.8-1-2.6-.5-.7-1.2-1.2-1.9-1.5h0c.1-.7.2-1.3.2-1.9h0l-4-.4h0l4,.4h0v-1.6c.8-.3,1.4-.8,1.9-1.4.7-.9,1-1.9,1.2-2.6h0v-.2c0-.6.1-1.3,0-1.9h0v-2ZM24.9,4.4h0ZM111.7,5.3h0ZM226.9,4.4h0l-2-1.6h0l2,1.6ZM239.2,38.5h0l2-1.6h0l-2,1.6ZM211.2,22.7h0l1.5.8h0l-1.5-.8ZM27.3,29.2h0l-.9,2.2h0s.9-2.2.9-2.2ZM73.2,6.7h0l-.5-.2h0l.5.2ZM191.5,4.7h-.1c0,0,.1,0,.1,0h0c0,0-.1,0-.1,0,0,0,.1,0,.1,0ZM232.9,24l3.1-.5h0l-3.1.5h0ZM81.9,35.1h0l1.4-.2h0l-1.4.2ZM26.5,15.7h0l-.6-.3h0l.6.3ZM13.6,15.6h0ZM25.3,16.3h0ZM26.5,14.9h0ZM12,13.8h0ZM165.3,36.3h0v.5h0v-.5ZM51.8,32.1h.8-.8c0,0,.8,0,.8,0h-.8ZM127,11l.6.4h0l-.6-.4.4.4h0l-.4-.4h0ZM56.4,13.3h0ZM81.8,29.9h.2-.2.2-.2ZM95.1,25.5h0l-1.4-.3h0l1.4.3ZM50.4,21.4h1.2c0-.1-1.2-.1-1.2-.1h0ZM69.1,25.2h0v.5h0v-.5ZM68.3,14.3h.6-.6ZM49.4,22.1h0l1.4,1h0l-1.4-1v1.2h0v-1.2h0ZM87.7,18.8h.5-.5ZM89.8,20.2h0ZM68.2,13.2h0ZM68.3,26.4h0ZM61.4,13.5h-.9.9ZM48.1,22.4h0ZM50.3,28.4h0l-.3,2.1h0l.3-2.1ZM50.7,30.7h0l1.4-.8h0l-1.4.8ZM80.5,26.1h1.7-1.7ZM96.9,25.9h0ZM99.4,16.5h0ZM39.2,18.4h0ZM81.6,29.1h.5c0,.1-.5,0-.5,0h0l.5.2h-.5v-.2ZM82.2,30.7h-.2.2ZM91.7,30.8h0v.3h.2l-.2-.4h0ZM168.6,21.6l.2-.2h0l-.2.2h0ZM204.6,13.1v.4h-.1v-.4s.1,0,.1,0ZM205.9,34.7h.6c0,0-.6,0-.6,0h0ZM175.7,23.7l1.1-.2h0l-1.1.2h0ZM188.4,25.2h0l1.8.3h0l-1.8-.3h0ZM184.5,20.2h0ZM188.8,22.1h0l2.5.3h0l-2.5-.3h0ZM188.6,23.7h0ZM186.6,19.5h0ZM195.5,28.5h.8c0-.1-.8,0-.8,0ZM189.4,16.1h-.2.2ZM169.7,16.8h0ZM169.5,16.8h0l-.3.2h0l.3-.2ZM175.1,20.5l1.5-.2h0l-1.5.2h0ZM196.1,29.4h0ZM205,13.4l-.4.4h0l.4-.4h0ZM204.4,13.1h0ZM188.6,15.5l-.4.2h0l.4-.2h0ZM162.6,24.9l-1.1.5h0l1.1-.5h0ZM158.7,21h0l-2,.5h0l2-.5-2,.5h0l2-.5h0ZM114.4,23.4h0ZM136.5,22.2h0ZM137.8,21.2h0ZM139.8,23.6h.9c0-.1-.9-.1-.9-.1h0ZM127,16.1h0ZM111.6,27.5h0l-.2-.2.2.2h0l-.2-.2h0l.2.2ZM118.9,24.5h0l.8-.2h0l-.8.2ZM150.5,19.5h0ZM148.4,20.2h0ZM146.8,18.8h-.5.5ZM140.5,26.1h.3-.3ZM149.8,26.3h0ZM154.2,25.6l-1.8-.3h0l1.8.3h0ZM152.7,22.1h0l2.2.2h0l-2.2-.2h0ZM107.3,21.8h0l-.6-.6h0l.6.6ZM118.1,33.2h0ZM126.9,26.5h0ZM152.5,23.7h0ZM163,31.8h0ZM174,21.2h0l2.6.2h0l-2.6-.2ZM206.9,35.7v-.5h0v.5l.3-.2h0l-.4.2h0ZM203.6,13h0l-.4,1h0l.4-1h0ZM188.4,15.5h-.2c0,.1.2,0,.2,0ZM168.9,15.8h-.3.3ZM152.4,15.5h-.2c0,.1.2,0,.2,0ZM131.2,16.9h0ZM107.9,16h0l1.3-.4h0l-1.3.4ZM106.5,23h0ZM104.1,25.9h0ZM129.7,28.3h0ZM146.7,26.9h0ZM150.3,30.8v.3h.1v-.3h-.1ZM156.2,26.1h0c0-.1-.7-.1-.7-.1h0c0-.1.7-.1.7-.1,0-.1,0-.4.1-.6.1.1.2.3.3.4h0c.3.3.8.8,1.4,1.2-.2.1-.3.2-.5.4-.4-.5-.9-.8-1.5-1.1h.2ZM160.1,30.4h0l-1.2-1.3h0l1.2,1.3ZM176.7,26h.2-.2ZM182.7,26.9h0ZM186.3,30.8h0v.3h.1l-.2-.4h0ZM195.3,31.1h.5-.5.5-.5ZM243,20.6h0ZM241.5,18.8h.5-.5.5-.5ZM242.1,20.5h0ZM203,12.9l.2,1.1h0l-.2-1.1h0ZM166.5,16.2h0ZM131.5,14.4h-.6.6-.6.6ZM102.4,22c-.4.3-.7.7-1.1,1.1h0c-.5.4-.9.9-1.3,1.4l3.2,2.4h0l-3.2-2.4h0c-.4.5-.7,1-1,1.5l3.5,1.9h0l-3.5-1.9h0v.3c0,.1,0,.3-.2.5-.3-.2-.6-.5-1-.6h0c0-.7.2-1.3.2-1.9h0l-4-.4h0l4,.4h0v-1.6c.7-.3,1.3-.8,1.8-1.3.3,0,.5,0,.8.1,0,0,.2.2.3.3.5.6,1.2,1,2,1.3,0,.2-.3.4-.5.7v-1.8ZM101.4,17.8h0l.2-1.9h0l-.2,1.9ZM57.2,10.3h-.5.5ZM36.3,14h0l-.6.3h0l.6-.3ZM41.4,21.8h0l-2.3-.5h0l2.3.5ZM35.2,24.2h0ZM39.3,24.9h0l1.6.2h0l-1.6-.2ZM47.5,32.4h0ZM76.2,26.4h0ZM77.2,28.5h0ZM78.2,30.9h-.2.2ZM171.3,24.2l1.4-1.3h0l-1.4,1.3h0ZM173.3,28.4h0ZM184.5,30.2h0v1.3c-.1,0,0-.3,0-.3v-1.1h0ZM245.5,30.8h0l.2.4v-.3c0,0-.1,0-.1,0v.3h.1l-.2-.4ZM245.8,19.5h0ZM248.5,16.1h.2-.2ZM243.4,15.5h0l.3-1.6h0l-.3,1.6ZM131.2,13l-.5.2h0l.5-.2h0ZM87.8,15.5h0ZM61.2,10.2h-.5.5ZM35.5,13.6l.2.7h0l-.2-.7h0ZM46.9,33.4h0ZM67.7,32.3h0ZM87.8,29.3h.9-.9.9-.9ZM89.9,30.2h0v1.3h0v-1.3ZM141.7,34.2h0ZM146.4,29.3h.9-.9ZM148.4,30.2h0v1.3h0v-1.3ZM182.4,29.3h.9-.9ZM234.5,20.4h1.3c0,0,0-.1,0-.1h-1.3ZM241.6,29.3h.9-.9s0,0,0,0h0ZM244.8,14.4h0l-.8,1.3h0l.8-1.3-.9,1.3h0l.9-1.3h0ZM241.7,15.5h0ZM185.6,14.4l-.9,1.3h0l.9-1.3h0ZM166.6,4.5h0ZM149.5,14.4l-.8,1.3h0l.8-1.3h0ZM147.5,14h0ZM128.1,11.4h-.2.2ZM127.4,10.6h0ZM53.9,34.6h0l-.6.3h0l.6-.3ZM61.9,30.8h0ZM77.9,32.8h0ZM77.8,34.5h0ZM91.5,37.3h0ZM121,34.8h0l-.8,2.5h0l.8-2.5ZM216.5,19.1h0ZM230.6,19.2h0ZM234,21.3h1.8c0,.1-1.8,0-1.8,0ZM231,4.2h0ZM226.2,5.8h-.5c0-.1.5,0,.5,0h0ZM220,3.9h0ZM172.1,6.7h0ZM20.2,4h0ZM51.4,33.5h1.2-1.2ZM116.6,35.4l.4.3h0l-.4-.3h0ZM121.4,36.2h0ZM133.9,36.2h0l-.2,1h0l.2-1ZM141.8,35h-.5c0,0,.5,0,.5,0h0ZM164.9,36.5h0l.3.4h0l-.3-.4h0ZM169.7,35.6l1.9.8h0l-1.9-.8h0ZM170.7,34.5h0ZM177.8,34.2h0ZM188.5,36.4h0ZM207.8,25.8h0ZM249,25.5h0l-1.4-.3h0l1.4.3ZM232.1,4.2h0l-.2-1.5h0l.2,1.5h0ZM217.7,3.8l-.9-1.1h0l.9,1.1h0ZM204.1,4.6l.3-3.4h0l-.3,3.4h0ZM190.3,4.1h0ZM176.5,6h0ZM175.9,5.7h0ZM175.7,5.6h0ZM173.4,4.7h0ZM172.7,5h0l-1.2.5h0l1.1-.5h0ZM167.8,4.2h0l-.5-2.4h0l.5,2.4h0ZM165.2,4h0ZM124.9,3.9h0ZM120.5,4.6h0ZM65.9,3.9h0ZM61.1,4.8h0l-1.1-.3h0l1.1.3h0ZM44.8,5.5l-.3-.2h0l.3.2h0ZM30.8,4h0ZM3.2,13.5h0ZM3.8,17.3h0l-.7.5h0l.7-.5ZM2.8,18.5l1.4-.5h0l-1.4.5h0ZM18,28h0ZM29.6,35.4h0ZM29,37.9l1.6-1.1h0l-1.6,1.1h0ZM46.1,35l1.4.3h0l-1.4-.3h0ZM53.4,34.3h0v.5h0v-.5ZM62.6,32.3h0ZM83.5,35.5h0ZM87.3,36.9l-2,1.6h0l2-1.6h0ZM113.5,36.3h0l.2,2.2h0l-.2-2.2h0ZM122.7,36.2h0ZM125.7,33h0ZM133.5,36.1h0ZM137.4,34.5h.2-.2ZM144,38.8h0l1.9-1.9h0l-1.9,1.9ZM169.3,36.5h0l2.9,1.2h0l-2.9-1.2ZM180.1,38.8h0l1.9-1.9h0l-1.9,1.9ZM200.3,35.5h0ZM208.9,28.2h.1-.1ZM218,23.7h0l-3,2.7h0l3-2.7ZM237.3,35.4h0ZM251,8.4h0ZM187.4,4h0ZM180.4,3.9h0ZM170.1,4.1h0ZM151.3,4h0ZM144.3,3.8h0ZM140.5,6h0l-.9-.4h0l.9.4ZM127.7,4.1h0ZM123.7,3.5h0ZM85.8,3.9h0ZM65.3,0h0ZM53.3,4h0ZM23.1,4.3h0ZM14.7,3.7h0ZM12.3,3.4h0ZM4.5,6.5h0ZM-.3,32.3H-.3l3.9-.2h0l-3.9.2,3.8.9h0s-3.8-.9-3.8-.9ZM14.5,35.7h0ZM31,37.1h0ZM38.5,35.5h0l3.9-.5-3.8.2h0l3.8-.2h0l-3.9.5ZM53.1,36.9h0l1.4-.6-1.3.4h0l1.3-.4h0l-1.4.6ZM65.5,36.7h0ZM71.8,33.5h0l1.2-.5h0l-1.2.5ZM99.4,36.6h0l1.3-.8h0l-1.4.8h0ZM105.3,37.1h0ZM112.6,36.5l1,2.2h0l-1-2.2h0ZM168.7,36.9h0ZM175.2,35.6l2.7-.7h0l-2.7.7h0ZM198.7,37.3h0ZM217.4,23.1l-2.3,3.3,2.3-3.3h0ZM219.7,29.9h0ZM218.4,38l2.3-2.1h0l-2.3,2.1ZM229,23.1h0l3,.6h0l-3-.6ZM232.5,26.1h3.6s0,0,0,0h-3.6ZM232.3,28.4l3.6.8-2.5-.8h0l2.5.8h0l-3.6-.8h0ZM250.5,30.8h0ZM250.8,25.9h0Z"/>
  </g>
  <g id="Layer_2" data-name="Layer 2">
    <g id="path-1-outside-1_1_23" data-name="path-1-outside-1 1 23">
      <path class="cls-2" d="M5.8,7.2c.7-.8,1.6-1.4,2.5-1.6.4,0,.9-.2,1.3-.3.4,0,.9-.3,1.4-.5.9-.5,1.5-.7,1.8-.7h.8c.2,0,.4,0,.7,0h1.8c1.1,0,2.3.9,3.5,2.2.8.8,1.3,1.7,1.5,2.6.2.9.3,1.8.3,2.7,0,1.3,0,2.2.3,2.8.2.6.3,1.1.4,1.4,0,.3,0,.8-.1,1.4s-.3,1-.6,1.2c-.3.2-.6.4-1,.4h-1.8c-.2,0-.4,0-.4.2,0,0-.1.2-.2.3-.2.2-.6.2-1.2,0s-1.1-.5-1.5-1.1-.4-1.3-.1-2.2c0-.3.2-.6.3-.8,0-.3.1-.5,0-.7-.1-.4-.4-.6-.8-.7-.4,0-.8,0-1.1.4-.4.4-.7.9-.9,1.5-.1.6-.2,1-.1,1.3v1.7c.1.8.3,1.3.5,1.5.3.3.5.4.7.4h1c.1,0,.4,0,.7.2.3.1.6.3,1,.4s.7.4.9.7c.3.3.5.5.7.6.2,0,.4.2.5.3.1,0,.3.1.4.2.1,0,.3.2.4.4.4,1,.5,2.2.3,3.6,0,.5-.1.9-.2,1.2v2.1c0,1.2-.2,2.1-.6,2.8-.4.6-.8,1.1-1.2,1.3-.4.2-.7.4-.8.5-.1,0-.2.3-.3.4,0,.2-.2.4-.3.6-.4.5-.9.8-1.5,1.1-.8.2-1.6.3-2.5.3s-1.5,0-2,0c-.5,0-.9-.3-1.3-.7-.4-.4-.7-.7-1-1.1-.2-.4-.4-.7-.6-.7h-1c-.5,0-.8,0-1-.4,0-.3-.2-.6-.2-.8v-2.4c0-.4.2-.8.5-1.1.7-.6,1.3-.8,1.8-.9.5,0,.9-.1,1.1-.3.2-.2.3-.3.4-.5.1-.1.3-.2.4-.3h.6c.5.1.7.4.7.9v1.2c0,.4,0,.7.2,1,.2.8.6,1.1,1.1,1.1s1-.7,1-1.8v-1.9c0-1.4-.7-2.4-2-3.2-.5-.3-1-.6-1.5-.8-.5-.3-1-.6-1.4-1-1-.9-1.6-1.9-1.9-3s-.5-1.9-.6-2.2c0-.4-.2-.6-.4-.7,0-.1-.2-.2-.3-.3,0,0-.3-.2-.5-.5-.3-.4-.4-1-.2-1.5.2-.6.3-1.1.4-1.5s.2-.8.2-1.3v-2.8c0-1.1.5-2,1.2-2.9l-.2.3ZM24.4,5h4.1c1.7,0,2.9,0,3.6-.4,1.4-.7,2.6-.8,3.5-.3.4.2.8.4,1.2.4s.9,0,1.6-.5c.8-.3,1.4-.4,1.9-.2s.9.4,1.1.7c.2.3.4.7.4,1.4s0,1.3,0,1.9c0,.6,0,1.2-.2,1.8-.2,1.5-.2,2.5-.2,2.9s0,1,.2,1.5c0,.5,0,1,0,1.5,0,1.1-.5,1.8-1.4,1.9-.6,0-1.1,0-1.4-.4-.3-.4-.5-.8-.7-1.3-.2-.5-.4-.9-.6-1.3-.2-.4-.4-.5-.8-.4-.4,0-.6.5-.7,1.1,0,.6,0,1.4,0,2.3,0,.9,0,1.8.2,2.8,0,.9,0,1.7.2,2.4v3.9c0,1.3-.2,2.1-.5,2.6-.2.2-.3.5-.3.8v1c0,.4.2.7.3,1.1,0,.4,0,.8,0,1.3,0,1.2-.5,2-1.6,2.5-.4.2-.7.5-1.1.9-.3.4-.6.7-.7.8,0,0-.3.2-.6,0-.2,0-.4,0-.5-.3,0,0-.2-.3-.3-.5-.2-.5-.4-.8-.7-.9-.4,0-.6-.4-.7-1,0-.6-.1-1-.1-1.5v-1.6c0-.6-.2-1.1-.6-1.5-.3-.4-.6-.6-.8-.7-.2-.1-.3-.4-.4-.7v-1.2c0-.4.2-.9.3-1.4.4-1.4.5-2.8.6-4v-4.7c-.1-1.5-.5-2.3-1.2-2.3s-.6.2-.7.5-.3.6-.5,1c-.4,1-1.2,1.2-2.2.8-.4-.2-.6-.5-.7-.8,0-.4-.1-.8-.2-1.3v-1.6c0-.6-.1-1.1-.3-1.6-.2-.5-.4-1-.5-1.5-.2-.5-.2-.9-.2-1.4s.1-.9.3-1.4c.2-.4.3-.9.2-1.3,0-.4,0-.9.3-1.3s.7-.6,1.4-.6h0ZM45.8,37.8h-1c-.4,0-.6-.4-.7-.7,0-.4-.2-.8-.3-1.3v-3.2c0-1.2-.2-1.9-.6-2.2-.8-.6-1.1-2.1-1-4.5,0-1.4.3-2.5.5-3.3.3-1.3.4-2.5.4-3.4v-2.2c0-.5.2-1,.3-1.3,0-.4.2-.7.4-1.1,0-.4.3-1,.4-1.9.3-2.2.6-3.6.8-4.1.3-.7.7-1.5,1.1-2.2.5-.8.8-1.3,1.1-1.6.7-.5,1.6-.5,2.9,0,.9.3,1.8.4,2.6.3s1.4-.2,1.8,0c.4,0,.9.2,1.5.5.5.3.9.7,1.2,1.1s.5.9.6,1.4c.2.8.2,1.9,0,3.3-.2,1.3-.2,2.3-.2,3.2s.2,1.6.5,2.3.5,1.3.6,1.7c0,.4.2.8.3,1.3,0,.4,0,.9.2,1.4,0,.5,0,1,.3,1.6,0,.6.2,1.1.2,1.5v.9c0,.2,0,.5,0,.7v2.2c0,.5,0,.9-.2,1.4-.3,1.3-.5,2.3-.4,2.9,0,1,0,1.7,0,2.2,0,.4-.2.7-.4,1,0,.3-.2.6-.4,1.1,0,.5-.4.9-.8,1.3s-.8.5-1.2.4-.6-.4-.7-.6c0-.3-.2-.6-.3-.9,0-.3,0-.6-.3-.8,0-.2-.3-.4-.5-.4-.5,0-.7-.3-.7-.8v-2.4c0-.4-.2-.7-.4-1.1-.5-.9-1.1-1.4-1.8-1.5-1.1-.1-1.8.4-2.2,1.5,0,.3-.2.7-.2,1.2s0,.9-.4,1.3c-.2.4-.4.7-.6,1-.2.3-.4.5-.6.7-.2.2-.3.5-.4.8-.2,1.3-.7,2-1.5,2.2l.2-.7ZM49.7,19.4c-.6,1.6-.7,2.8-.2,3.8.3.5.7.8,1.1.8.8,0,1.3,0,1.5-.2s.4-.5.6-.7c.2-.3.3-.6.3-1.1s0-1,0-1.4-.2-.9-.4-1.4-.4-1-.5-1.6c0-.6,0-1.1-.2-1.7,0-1.2-.4-1.8-.8-1.8s-.5.2-.6.5c0,.3,0,.7,0,1.2,0,1.5-.2,2.7-.5,3.5h0ZM77.1,18.5c-.6,1.2-1,2.1-1.2,2.6-.2.6-.3,1-.3,1.3s0,.6.3,1.1c.2.5.5,1,.7,1.6.3.6.6,1.2,1,2,.4.7.7,1.4,1,2.1.3.6.4,1.1.5,1.5,0,.3.2.6.3,1v1.9c0,.7,0,1.3,0,1.7v1.1c0,.4,0,.6-.2.9,0,.2-.5.3-1.1.4-.6,0-1.1,0-1.6-.6-.5-.4-.9-1-1.2-1.5-.3-.6-.6-1.2-.8-1.8-.2-.6-.5-1.1-.8-1.5-.4-.4-.7-.9-.9-1.7-.2-.7-.4-1.4-.6-2.1s-.4-1.3-.6-1.8-.5-.8-.9-.8-.6,0-.7.3c0,.2,0,.6,0,1s0,.8,0,1.3v3.2c0,.5-.3,1-.7,1.5-.4.4-.6.9-.8,1.4,0,.5-.2.9-.3,1.4,0,.4-.2.8-.4,1.1,0,.3-.4.5-.7.5-.7,0-1.3-.4-1.9-1.2s-.9-1.9-1-3.2c0-.8-.3-1.3-.7-1.5-.3-.2-.4-1-.3-2.4,0-.4,0-.7.2-1,.2-.9.2-2.2,0-3.9-.2-1.7-.3-2.7-.4-3,0-.3,0-.7-.2-1.1,0-.4,0-.9-.2-1.4v-1.5c0-.5,0-1.1.2-1.6,0-.6.2-1.1.2-1.5v-1c0-.9-.2-1.7-.2-2.2v-1.8c0-.6,0-1.3-.2-1.9,0-.6,0-1.2,0-1.7s.4-.9.8-1.1c.4-.2.8-.3,1.1-.3s.6,0,.9.2c1,.3,1.6.4,2,.3,2.2-.6,3.1.9,2.7,4.3,0,.6-.2,1.1-.3,1.5-.2,1.1-.3,1.8-.2,2.4v2.2c0,.8.2,1.2.6,1.2s1.1-.8,1.9-2.5c.2-.4.3-.7.4-.9,0-.2.2-.5.3-.8,0-.3.3-.6.5-1,.5-.8,1-1.3,1.5-1.5-.4-.8-.5-1.5-.2-2.1s.5-1.1.6-1.4.3-.5.5-.7c.3-.3.8-.4,1.4-.2.6.2,1.2.2,1.7,0,.5,0,.9-.3,1.4-.4.5-.2.9-.3,1.4-.4.4,0,.8,0,1.1.3.3.3.5.6.6.9v1.1c-.2.8-.6,1.6-1.3,2.3-.4,1.6-1.1,2.9-2,3.8,0,1.4-.6,2.5-1.3,3.5-.3.3-.7,1.1-1.3,2.3l-.4-.2ZM83.5,29v-4.7c0-1-.2-1.7-.2-2.1v-1.9c0-.4-.3-.9-.7-1.7-.3-.8-.5-1.6-.5-2.5s.2-1.6.6-2.1.5-1.1.4-1.6c0-.6-.2-1.1-.2-1.8v-1.9c0-.7.2-1.3.4-1.9.6-1.5,1.9-2.2,3.9-2.2s2.2,0,3.1.4c.9.2,1.5.3,1.9.3s1-.2,1.9-.4c1.2-.5,2.2-.4,2.9,0,.2,0,.4.3.6.4.2,0,.4.2.5.3.5.6.6,1.8.4,3.6,0,.6,0,1.1-.2,1.7,0,1.3,0,2.3,0,2.9,0,.6.2,1.2.2,1.7v1.3c-.2.8-.5,1.3-1,1.3s-.8-.2-1-.4c-.2-.3-.3-.5-.4-.8s-.2-.6-.4-.8c0-.3-.4-.4-.8-.4-1.3,0-2.2-.1-2.6-.4-.4-.3-.8-.5-1.1-.5h-.9c-.6.3-1,.7-1.1,1.5,0,.7,0,1.3-.2,1.8v1.5c0,1,.2,1.6.6,1.8.4.1.6.1.9,0,.2-.1.5-.2.7-.4.7-.5,1.4-.7,2.2-.7s1.3.3,1.7.9c.4.6.5,1.2.5,1.7s0,1.1-.2,1.6c0,.5,0,1-.2,1.5-.4,1.8-1.3,2.2-2.5,1.1-1.7-.1-2.7,0-3.1.6,0,.1-.2.5-.3.9,0,.5,0,1,0,1.5,0,1.4.8,2.1,2,2.2.8,0,1.5,0,2.1-.3s1.1-.6,1.3-.9c.2-.4.4-.5.7-.6.3,0,.5-.1.7-.1h1.2c.5.2.8.6.9,1.2s0,1.2-.2,1.8c-.2.5-.4,1-.5,1.5,0,.4,0,.7-.2.9,0,.2-.2.5-.5.8s-.5.5-.7.7c0,.2-.4.2-.7,0-.6-.5-1.4-.2-2.3.9-.2.3-.5.6-.7.7-.3,0-.7.2-1.2.2s-1-.2-1.3-.4c-.3-.3-.6-.5-.9-.8-.4-.6-1.2-.8-2.3-.6-.6,0-1.2-.2-1.6-.8,0,0-.2-.2-.2-.5s0-.5,0-.8c-.2-.8-.4-1.2-.6-1.5,0-.2-.2-.5-.3-.9v-1.1c0-.4,0-.7,0-.9v-.7c0-.3,0-.6,0-.9h-.4ZM115.7,24.1c-.4.3-.7.7-1,1.3-.3.6-.6,1.1-.9,1.5s-.7.8-1.1,1.2c-.4.4-.8.8-1.3,1.2-1.1,1-1.9,2-2.4,2.9,0,.3.5.5,1.1.5h.5c.3-.2.7-.3,1.1-.4h2.3c.3-.2.7-.3,1.1-.3h1.7c0-.1.3-.1.5,0,.2,0,.4.3.5.7s.2.8.2,1.2c0,1.1,0,1.8-.2,2.1-.3,0-.5.3-.5.5s-.2.4-.4.5c-.2,0-.4.2-.6,0h-.5c-.4-.2-.8-.2-1.1-.2s-.6,0-.9.3c-.3,0-.6,0-1,0-.3,0-.6,0-1,0-.3,0-.7,0-1.1,0h-1.2c-.4,0-.9,0-1.4.3-.6,0-1.1.3-1.7.5-.5.2-1.1.3-1.8.3s-1.1,0-1.4-.3c-.3,0-.6-.3-.8-.5-.2-.2-.4-.5-.5-.7,0-.3-.4-.6-.7-1-.3-.4-.5-.8-.7-1.3s0-1.1.5-1.6,1-1.1,1.3-1.6.6-.9.8-1.3c.2-.4.4-.8.5-1.1.2-.3.4-.7.7-1,.3-.4.6-.7.9-1s.6-.6,1-.9c.6-.6,1.1-1.2,1.5-2,.2-.4.5-.8.7-1.2.3-.4.6-.7.9-1.1.6-.9,1-1.9,1.1-2.9v-2.2c0-.4-.3-.7-.5-.9-.5-.3-1,0-1.5.9s-1.1,1.5-1.8,1.8c-.6.3-1.2.3-1.5-.1-.4-.4-.7-.7-1-1s-.7-.4-1.3-.4-1.2-.2-1.8-.4c-.6-.2-.9-.6-1.1-1.2-.2-1.2,0-2.4.4-3.6.5-1.3,1.2-2.5,2.1-3.5.9-1.1,1.9-1.9,3-2.6s2.2-1.1,3.2-1.1,1.8,0,2.5.4,1.3.8,1.8,1.5c.2,0,.6,0,1.1.4s1,.8,1.3,1.5c.2,0,.4.2.7.5.3.4.5.8.5,1,0,0,.3.3.5.7.4.6.5,1.1.5,1.5.2,0,.4.8.5,2.1v1.7c0,.7,0,1.4-.2,2.2,0,.3.2.8.2,1.5s0,1.4-.4,2.2c-.5,1.2-1.2,2.1-2.1,2.7h.2ZM127.7,29.3v2.1c.2,1.1,0,1.9-.7,2.2-.2,1.2-.3,2.2-.3,3.1-.2.4-.5.7-1,.7-.9,0-1.5,0-1.7-.7-.4-.7-.7-1.1-.9-1.2h-.3c0,0-.3,0-.4,0-.2,0-.2-.3-.2-.7v-.9c0-.2,0-.5-.2-.7-.2-.8-.4-1.5-.4-2.2v-2.6c0-1.3-.2-2.4-.5-3.4-.3-.9-.4-1.6-.5-1.8-.2-.6-.3-1.3-.3-1.8s0-.6,0-.7c0-.2.2-.4.3-.5.2-.4.3-1,.3-1.5s0-1.2,0-1.8c0-.6,0-1.3,0-2,0-.8,0-1.6,0-2.4v-2.5c0-2.6.3-4,1-4.4,0,0,.2,0,.4-.2.2,0,.4-.2.6-.4.2,0,.4-.3.6-.4s.4-.3.6-.4c.4-.2.8,0,1.4,0,.6.2,1,.4,1.2.4s.5,0,.7.2h3.9c.7,0,1.3,0,1.9.3,2,.4,3.5,1.5,4.6,3.3.5.8.7,1.5.7,2.1v1.8c0,.6.2,1.2.4,1.9s.2,1.4.2,2-.1,1.1-.2,1.4c0,.2-.1.5-.2.7-.1.4-.2.9-.2,1.4,0,.8,0,1.4-.2,1.8s-.4.8-.5,1.3c-.5,1.1-1,1.7-1.6,1.8-.3,0-.6.1-.8.2-.2,0-.3.2-.4.4,0,.1,0,.3.3.5.2.2.5.5.7.8.3.4.5.6.7.7s.3.2.5.2c.4,0,.7.2.8.3.3.3.5.6.6.8.1.2.2.5.1.9v1.3c0,.4.1.9.2,1.4v1.9l.2,1.1c0,.7-.2,1.3-.6,1.7-.4.4-.7.7-1,.7h-.7c-.2,0-.4-.2-.5-.4-.1,0-.3-.2-.4-.2h-.4c-.1,0-.2,0-.4,0-.5,0-1-1.2-1.4-3.1-.2-.9-.6-1.5-1.1-1.8-.8-.4-1.2-.9-1.2-1.6v-1.3c-.1-1.1-.5-1.8-1.1-2.1-.3-.1-.6-.2-.9-.2s-.5.1-.8.4c-.4.4-.5,1.1-.5,2.1l-.2.2ZM129.9,21c.4-.4.7-.7,1.1-.9.4-.3.7-.7.9-1.1.3-.5.5-.9.6-1.4.2-.9.3-1.7.2-2.4,0-.8-.1-1.3-.3-1.5,0-.3-.4-.4-.9-.4s-1-.1-1.5-.4c-.5-.2-.7-.5-.8-.8,0-.7-.3-1-.7-.7-.2.1-.4.2-.4.4,0,0-.2.4-.2.9v2.4c.1.6.2,1,.2,1.2v4.1c0,.4,0,.8.1,1.3.5,0,.9-.3,1.3-.6h.4ZM142.1,29v-4.7c-.1-1-.2-1.7-.2-2.1v-1.9c0-.4-.3-.9-.7-1.7-.3-.8-.5-1.6-.5-2.5s.2-1.6.6-2.1c.4-.5.5-1.1.4-1.6,0-.6-.2-1.1-.2-1.8v-1.9c0-.7.2-1.3.4-1.9.6-1.5,1.9-2.2,3.9-2.2s2.2,0,3.1.4,1.5.3,1.9.3,1-.2,1.9-.4c1.2-.5,2.2-.4,2.9,0,.2,0,.4.3.6.4.2,0,.4.2.5.3.5.6.6,1.8.4,3.6,0,.6-.1,1.1-.2,1.7-.1,1.3-.1,2.3,0,2.9.1.6.2,1.2.2,1.7v1.3c-.2.8-.5,1.3-1,1.3s-.8-.2-1-.4c-.2-.3-.3-.5-.4-.8-.1-.3-.2-.6-.4-.8-.1-.3-.4-.4-.8-.4-1.3,0-2.2-.1-2.6-.4-.4-.3-.8-.5-1.1-.5h-.9c-.6.3-1,.7-1.1,1.5,0,.7-.1,1.3-.2,1.8v1.5c0,1,.2,1.6.6,1.8.4.1.6.1.9,0,.2-.1.5-.2.7-.4.7-.5,1.4-.7,2.2-.7s1.3.3,1.7.9.5,1.2.5,1.7-.1,1.1-.2,1.6c0,.5,0,1-.2,1.5-.4,1.8-1.3,2.2-2.5,1.1-1.7-.1-2.7,0-3.1.6,0,.1-.2.5-.3.9,0,.5-.1,1,0,1.5.1,1.4.8,2.1,2,2.2.8,0,1.4,0,2.1-.3.6-.3,1.1-.6,1.3-.9.2-.4.4-.5.7-.6.3,0,.5-.1.7-.1h1.2c.5.2.8.6.9,1.2.1.6,0,1.2-.2,1.8-.2.5-.4,1-.5,1.5,0,.4-.1.7-.2.9,0,.2-.2.5-.5.8s-.5.5-.7.7c-.1.2-.4.2-.7,0-.6-.5-1.4-.2-2.3.9-.2.3-.5.6-.7.7-.3,0-.7.2-1.2.2s-1-.2-1.3-.4c-.3-.3-.6-.5-.9-.8-.4-.6-1.2-.8-2.3-.6-.6,0-1.2-.2-1.6-.8,0,0-.2-.2-.2-.5s0-.5-.1-.8c-.2-.8-.4-1.2-.6-1.5-.1-.2-.2-.5-.3-.9v-1.1c0-.4-.1-.7-.1-.9v-.7c0-.3.1-.6.1-.9h-.4ZM175.4,11.6c0,.2.1.4,0,.6,0,.2-.2.6-.6,1.1-.4.5-.6,1-.7,1.6v2.3c0,.6-.4,1.1-1.1,1.3-.6.2-1,.2-1.4,0-.3-.3-.6-.6-.8-1s-.4-.8-.5-1.1c0-.3-.2-.5-.5-.5s-.7,0-1,.1c-.2.2-.4.3-.5.4-.2.2-.5.4-.7.5-.2,0-.4.2-.6.3-.3.2-.4.5-.4,1,.1.9,1.1,2.3,3,4.1.4.4.8.7,1.2,1.1.5.4,1,.9,1.4,1.4,1.1,1.3,1.6,2.7,1.8,4.3.1,1.6-.1,3-.7,4.2-.5,1-1,1.6-1.7,1.9-.5.3-.8.6-1,1.1-.2.4-.3.7-.4.9,0,.2-.3.3-.6.4-.3,0-.6.2-.9.2s-.7,0-1-.2c-.3,0-.6-.2-.8-.4-.2,0-.4-.2-.6-.2s-.3,0-.4.2c-.1,0-.3.2-.4.4-.4.4-.8.6-1.2.5-.4,0-.8-.2-1.2-.5-.5-.2-.9-.5-1.4-.9-1.6-1.2-2.1-2.5-1.6-3.8.3-.8.7-1.5,1.1-1.8.4-.4.7-.5,1-.5s.6.1.7.4c.1.3.3.5.4.7,0,.2.2.3.3.4s.3.2.5.4c.3,0,.5.2.8.2.7,0,1.3-.2,1.7-.9.4-.6.5-1.3.4-2.1-.2-1.4-.5-2-.9-1.8-.3.2-.7.2-1.2,0s-.7-.5-.7-.7c0-.3,0-.6-.2-.9s-.2-.6-.3-.8c-.3-.7-.5-1-.7-1.1h-1c-.4,0-.8-.2-1.3-.7s-.8-1.2-1-1.9c-.2-.8-.4-1.5-.5-2-.1-.6-.3-1-.4-1.4-.1-.3-.2-.7-.3-1-.3-1.1-.3-2.5,0-4.3.2-1,.5-1.9,1-2.7s1-1.6,1.6-2.3c1.1-1.5,2.1-2.5,3.1-3.1.9-.6,1.7-.6,2.2-.2.4.4.9.5,1.4.5s.9-.2,1.2-.3l.8-.2c.5,0,1,0,1.5,0s1,.6,1.4,1.5c.2.4.4.8.6,1.1.2.3.5.6.7.9.4.7.7,1.3.7,1.8s.2.8.3,1,.2.4.3.6h0ZM178.2,29v-4.7c-.1-1-.2-1.7-.2-2.1v-1.9c0-.4-.3-.9-.7-1.7-.3-.8-.5-1.6-.5-2.5s.2-1.6.6-2.1c.4-.5.5-1.1.4-1.6,0-.6-.2-1.1-.2-1.8v-1.9c0-.7.2-1.3.4-1.9.6-1.5,1.9-2.2,3.9-2.2s2.2,0,3.1.4c.9.2,1.5.3,1.9.3s1-.2,1.9-.4c1.2-.5,2.2-.4,2.9,0,.2,0,.4.3.6.4.2,0,.4.2.5.3.5.6.6,1.8.4,3.6,0,.6-.1,1.1-.2,1.7-.1,1.3-.1,2.3,0,2.9.1.6.2,1.2.2,1.7v1.3c-.2.8-.5,1.3-1,1.3s-.8-.2-1-.4c-.2-.3-.3-.5-.4-.8-.1-.3-.2-.6-.4-.8-.1-.3-.4-.4-.8-.4-1.3,0-2.2-.1-2.6-.4-.4-.3-.8-.5-1.1-.5h-.9c-.6.3-1,.7-1.1,1.5,0,.7-.1,1.3-.2,1.8s0,1,0,1.5c0,1,.2,1.6.6,1.8.4.1.6.1.9,0,.2-.1.5-.2.7-.4.7-.5,1.4-.7,2.2-.7s1.3.3,1.7.9.5,1.2.5,1.7-.1,1.1-.2,1.6c0,.5,0,1-.2,1.5-.4,1.8-1.3,2.2-2.5,1.1-1.7-.1-2.7,0-3.1.6,0,.1-.2.5-.3.9,0,.5-.1,1,0,1.5.1,1.4.8,2.1,2,2.2.8,0,1.5,0,2.1-.3s1.1-.6,1.3-.9c.2-.4.4-.5.7-.6.3,0,.5-.1.7-.1h1.2c.5.2.8.6.9,1.2.1.6,0,1.2-.2,1.8-.2.5-.4,1-.5,1.5,0,.4-.1.7-.2.9,0,.2-.2.5-.5.8s-.5.5-.7.7c-.1.2-.4.2-.7,0-.6-.5-1.4-.2-2.3.9-.2.3-.5.6-.7.7-.3,0-.7.2-1.2.2s-1-.2-1.3-.4c-.3-.3-.6-.5-.9-.8-.4-.6-1.2-.8-2.3-.6-.6,0-1.2-.2-1.6-.8,0,0-.2-.2-.2-.5s0-.5-.1-.8c-.2-.8-.4-1.2-.6-1.5-.1-.2-.2-.5-.3-.9v-1.1c0-.4-.1-.7-.1-.9v-.7c0-.3.1-.6.1-.9h-.4ZM207,5.7h1.4c1,0,1.7,0,2.1.4.4.3.8.6,1,.9s.4.5.6.8c.2.3.4.5.7.8s.5.6.5,1.1.1.7.3.9.4.6.4,1.1v1.5c0,.5,0,.9-.1,1.2,0,.3-.1.6-.1.9s0,.6.2.8c.1.2.2.8,0,1.8,0,.9-.2,1.9-.5,2.9-.2,1-.5,1.8-.8,2.5-.7,1.3-1.8,2.4-3.4,3.1.1.4.3.7.5,1.2.2.4.4.8.6,1.3.4,1.1.6,1.9.6,2.4v1.1c0,.2.1.4.2.5,0,0,.1.2.2.3.1,0,.3.2.5.4.2,0,.4.4.5.8.1.4.2.8.2,1.2,0,.9-.1,1.5-.4,1.8-.2.2-.4.3-.7.4-.2,0-.5,0-.7.2-.7,0-1.1,0-1.3-.3-.2-.2-.4-.5-.4-.7,0-.3,0-.5-.1-.7,0-.2-.2-.3-.4-.4-.2,0-.3-.2-.4-.6,0-.3-.2-.5-.3-.6s-.4,0-.8,0c-.7,0-1.3-.3-1.6-1.3,0-.2-.2-.5-.3-.9,0-.4-.2-.7-.3-1.1-.2-.8-.5-1.3-.8-1.4h-.7c-.1.1-.3.4-.4.6v1.8c0,.4.1.6,0,.9,0,.2-.1.4-.3.6,0,0-.2.3-.3.4-.2,0-.4.4-.4.9s0,.8-.2,1.1c-.2.8-.4,1.3-.7,1.5s-.6.3-.9.4h-.9c-.7,0-1.2-.4-1.4-.8-.2-.4-.3-.6-.3-.8v-1.9c0-.3,0-.7-.2-1.1-.1-.5-.2-1-.2-1.7v-1.1c0-.1,0-.3.3-.6.2-.3.3-.6.2-1,0-.4-.2-.6-.5-.7s-.4-.2-.4-.4v-3.3c0-.9-.1-1.7-.2-2.3-.1-1.5-.4-2.3-.8-2.5-.4-.2-.6-.4-.7-.7v-1c0-.4.1-.8.2-1.3,0-.5.2-1.1.3-1.6,0-.6.2-1.1.2-1.5s.1-.8.2-1v-2.2c.1-.7.1-1.1,0-1.4,0-.3,0-.7.1-1.3.2-.6.3-1,.4-1.2.1-.2.3-.4.7-.5.3,0,.6-.3.9-.5.3-.2.6-.5.9-.7.3-.2.5-.4.7-.6s.5-.4.7-.4c.9-.2,1.5-.2,1.8,0,.4,0,.7.2.9.4.2,0,.4.3.6.4.3,0,.5.3.8.4h.8c.6,0,1,0,1.1.3.1,0,.3,0,.5,0h0ZM203.3,17.9l.3,4v1.5c0,.4.1.7.5.8.3,0,.5,0,.7-.2s.3-.5.5-.9c.4-.7.5-1.2.4-1.4-.2-.3-.3-.5-.2-.7s.3-.7.7-1.3c.4-.6.6-1.2.7-1.7.2-.5.2-1,.1-1.5,0-.6-.1-.9-.1-1.1v-.5c0-.2-.1-.4-.4-.6-.2-.2-.4-.3-.4-.3h-.9c-.2-.1-.5-.2-.7-.1-.2,0-.4.1-.7.4-.3.3-.4.5-.4.8v.9c.1,1.1.2,1.8.2,2.2l-.3-.3ZM223.1,8.2c.6.7.8,1.8.7,3.3,0,.8,0,1.4.3,1.9l.4,1.1c.2.5.4,1.6.5,3.1,0,.6.2.9.5.9s.3-.4.4-1.1c0-1.5.2-2.7.4-3.6.2-.8.4-1.6.5-2.2.1-.6.2-1.3.3-1.8,0-.6.1-1.2.1-1.7s.1-1.1.2-1.6c.1-.6.3-1,.7-1.5.4-.4.9-.6,1.6-.6s1.2,0,1.5,0c.3,0,.5,0,.6,0,.2,0,.3,0,.4,0h1.8c.1,0,.3,0,.4.2.1,0,.3.3.4.6.3.7.4,1.5.3,2.5,0,1-.2,1.6-.4,1.9-.1.3-.2.5-.4.7-.1.2-.2.3-.4.5-.1.1-.3.3-.4.6-.1.3-.2.7-.3,1.2,0,.5-.1,1.1-.2,1.7-.2,2.2-.5,3.7-1,4.4,0,.2-.2.4-.4.5-.7.9-1.1,1.7-1.3,2.4-.1.6-.2,1.2-.3,1.6-.4,2.3-.9,4.2-1.3,5.7-.5,1.6-.8,2.6-.9,3-.2,1.2-.6,2.1-1.3,2.6-.4.3-.7.8-1,1.5-.3.8-.5,1.3-.7,1.6s-.4.5-.7.4c-.3,0-.5-.3-.7-.6-.3-1-.6-1.6-1-2s-.7-1-.9-1.7c-.3-.7-.5-1.3-.6-1.9,0-.6-.2-1.2-.2-1.8-.2-1.7-.4-2.8-.5-3.4-.4-1.5-.7-2.4-1.1-2.7-.2-.3-.5-.5-.7-.6-.2-.2-.4-.3-.5-.5-.3-.3-.5-.7-.5-1.3s0-1.3.2-2.2c0-.9,0-1.8-.3-2.7-.3-.9-.4-1.6-.5-2,0-.5-.1-1-.3-1.5-.2-1.1-.6-2.2-1.2-3.3-1.1-1.9-1.2-3.4-.5-4.5.4-.6,1.1-1,2.1-1h1c.3,0,.6,0,.9-.4.4-.4,1-.3,1.8,0h.9c.9.3,1.3,1.5,1.3,3.6l.3.4ZM237.4,29v-4.7c-.1-1-.2-1.7-.2-2.1v-1.9c0-.4-.3-.9-.7-1.7-.3-.8-.5-1.6-.5-2.5s.2-1.6.6-2.1c.4-.5.5-1.1.4-1.6,0-.6-.2-1.1-.2-1.8v-1.9c0-.7.2-1.3.4-1.9.6-1.5,1.9-2.2,3.9-2.2s2.2,0,3.1.4,1.5.3,1.9.3,1-.2,1.9-.4c1.2-.5,2.2-.4,2.9,0,.2,0,.4.3.6.4.2,0,.4.2.5.3.5.6.6,1.8.4,3.6,0,.6-.1,1.1-.2,1.7-.1,1.3-.1,2.3,0,2.9.1.6.2,1.2.2,1.7v1.3c-.2.8-.5,1.3-1,1.3s-.8-.2-1-.4c-.2-.3-.3-.5-.4-.8-.1-.3-.2-.6-.4-.8-.1-.3-.4-.4-.8-.4-1.3,0-2.2-.1-2.6-.4-.4-.3-.8-.5-1.1-.5h-.9c-.6.3-1,.7-1.1,1.5,0,.7-.1,1.3-.2,1.8v1.5c0,1,.2,1.6.6,1.8.4.1.6.1.9,0,.2-.1.5-.2.7-.4.7-.5,1.4-.7,2.2-.7s1.3.3,1.7.9.5,1.2.5,1.7-.1,1.1-.2,1.6c0,.5,0,1-.2,1.5-.4,1.8-1.3,2.2-2.5,1.1-1.7-.1-2.7,0-3.1.6,0,.1-.2.5-.3.9,0,.5-.1,1,0,1.5.1,1.4.8,2.1,2,2.2.8,0,1.4,0,2.1-.3.6-.3,1.1-.6,1.3-.9.2-.4.4-.5.7-.6.3,0,.5-.1.7-.1h1.2c.5.2.8.6.9,1.2.1.6,0,1.2-.2,1.8-.2.5-.4,1-.5,1.5,0,.4-.1.7-.2.9,0,.2-.2.5-.5.8s-.5.5-.7.7c-.1.2-.4.2-.7,0-.6-.5-1.4-.2-2.3.9-.2.3-.5.6-.7.7-.3,0-.7.2-1.2.2s-1-.2-1.3-.4c-.3-.3-.6-.5-.9-.8-.4-.6-1.2-.8-2.3-.6-.6,0-1.2-.2-1.6-.8,0,0-.2-.2-.2-.5s0-.5-.1-.8c-.2-.8-.4-1.2-.6-1.5-.1-.2-.2-.5-.3-.9v-1.1c0-.4-.1-.7-.1-.9v-.7c0-.3.1-.6.1-.9h-.4Z"/>
    </g>
  </g>
</svg>